User Type,Username,Date,Text
,SomethingIsHere,2012-02-06T05:46Z,"Format                           : Matroska
File size                        : 2.33 GiB
Duration                         : 2h 31mn
Overall bit rate                 : 2 202 Kbps
Movie name                       : The Departed 2006 BRRip 720p Ac3^^Dual-Audio-Eng-Hindi^^TAKRIAN^^^DIRTYHD^^
Encoded date                     : UTC 2012-02-05 15:13:58
Writing application              : mkvmerge v4.4.0 ('Die Wiederkehr') built on Oct 31 2010 21:52:48
Writing library                  : libebml v1.0.0 + libmatroska v1.0.0

Video
ID                               : 1
Format                           : AVC
Format/Info                      : Advanced Video Codec
Format profile                   : Main@L4.1
Format settings, CABAC           : Yes
Format settings, ReFrames        : 3 frames
Muxing mode                      : Header stripping
Codec ID                         : V_MPEG4/ISO/AVC
Duration                         : 2h 31mn
Bit rate                         : 1 614 Kbps
Nominal bit rate                 : 1 700 Kbps
Width                            : 1 280 pixels
Height                           : 528 pixels
Display aspect ratio             : 2.40:1
Frame rate                       : 23.976 fps
Color space                      : YUV
Chroma subsampling               : 4:2:0
Bit depth                        : 8 bits
Scan type                        : Progressive
Bits/(Pixel*Frame)               : 0.100
Stream size                      : 1.71 GiB (73%)
Title                            : ^^TAKRIAN^^^DIRTYHD^^

Language                         : English

Audio #1
ID                               : 2
Format                           : AC-3
Format/Info                      : Audio Coding 3
Mode extension                   : CM (complete main)
Muxing mode                      : Header stripping
Codec ID                         : A_AC3
Duration                         : 2h 31mn
Bit rate mode                    : Constant
Bit rate                         : 384 Kbps
Channel(s)                       : 6 channels
Channel positions                : Front: L C R, Side: L R, LFE
Sampling rate                    : 48.0 KHz
Bit depth                        : 16 bits
Compression mode                 : Lossy
Stream size                      : 416 MiB (17%)
Title                            : ^^TAKRIAN^^^DIRTYHD^^
Language                         : English

Audio #2
ID                               : 3
Format                           : AC-3
Format/Info                      : Audio Coding 3
Mode extension                   : CM (complete main)
Muxing mode                      : Header stripping
Codec ID                         : A_AC3
Duration                         : 2h 31mn
Bit rate mode                    : Constant
Bit rate                         : 160 Kbps
Channel(s)                       : 2 channels
Channel positions                : Front: L R
Sampling rate                    : 48.0 KHz
Bit depth                        : 16 bits
Compression mode                 : Lossy
Delay relative to video          : 4s 0ms
Stream size                      : 173 MiB (7%)
Title                            : ^^TAKRIAN^^^DIRTYHD^^
Language                         : Hindi"
,bahlu,2012-02-09T09:22Z,"video 10, audio 10 for 90% of movie, then goes out of sync bad, cuts a bunch out then ends at least 5 min before end of movie.
thnx for the up
movies is a 10/10"
